<svg xmlns="http://www.w3.org/2000/svg" viewBox="0 0 795 1124" width="795" height="1124">
	<style>
		tspan { white-space:pre }
		.shp0 { fill: #ffffff } 
		.shp1 { fill: #297cfb } 
		.shp2 { fill: #0044aa } 
		.shp3 { fill: #1eb4d9 } 
		.shp4 { opacity: 0;fill: #297cfb } 
		.shp5 { fill: #0055d4 } 
		.shp6 { fill: #1e96b4 } 
		.shp7 { fill: #7fc3d4 } 
		.shp8 { fill: #69a5ff } 
		.shp9 { fill: #0096bb } 
		.shp10 { fill: #000000 } 
	</style>
	<g id="Background">
		<path id="Path 0" class="shp0" d="M0 562L0 1124L795 1124L795 0L0 0" />
		<path id="Path 1" class="shp1" d="M547 224.31C541.23 226.65 533.8 230.06 530.5 231.9C527.2 233.74 521.8 237.17 518.5 239.52C515.2 241.86 509.07 247.32 504.89 251.64C500.7 255.96 495.1 262.88 492.43 267C489.77 271.13 486.18 277.88 484.45 282C482.72 286.13 480.56 292.65 479.65 296.5C478.74 300.35 477.32 308 476.49 313.5C475.67 319 474.77 323.73 474.5 324C474.22 324.27 472.26 320.68 470.13 316C468 311.32 465.75 305.36 465.13 302.75C464.51 300.14 464 295.52 464 292.5C464 288.28 463.65 287 462.5 287C461.68 287 460.6 288.01 460.12 289.25C459.63 290.49 459.41 291.84 459.62 292.25C459.83 292.66 454.3 302.56 447.33 314.25C440.36 325.94 433.19 338.65 431.39 342.5C429.6 346.35 426.57 354.9 424.66 361.5C422.75 368.1 420.17 379.35 418.91 386.5C417.15 396.55 416.62 403.48 416.57 417.06L416.5 434.62C423.09 448.09 425 452.23 425 452.5C425 452.77 422.19 450.02 418.75 446.37C415.31 442.73 411.88 438.12 411.12 436.12C410.21 433.75 409.72 428.18 409.7 420C409.69 412.55 410.36 403.67 411.37 398C412.3 392.77 414.61 381.52 416.51 373C418.4 364.48 421.54 353.56 423.48 348.75C425.61 343.46 426.51 340.13 425.75 340.33C425.06 340.5 422.77 344.67 420.67 349.58C418.56 354.48 415.73 362.32 414.38 367C413.03 371.68 411 379.77 409.87 385C408.24 392.48 407.71 399.28 407.35 417L406.91 439.5C435.34 468.18 447.4 480.8 452.05 486.06C456.7 491.32 464.81 501 470.09 507.56C475.36 514.13 485.93 527.78 493.59 537.9L507.5 556.31C515.25 555.44 518.75 554.59 520.28 553.85C523.02 552.52 523.06 552.36 523.03 543.5C523.01 538.55 521.87 512.45 520.48 485.5C519.1 458.55 517.52 430.88 516.99 424C516.45 417.13 515.49 404.07 514.85 395C513.98 382.58 513.97 375.04 514.83 364.5C515.46 356.8 516.89 345.32 518.02 339C519.15 332.68 521.6 321.65 523.47 314.5C525.34 307.35 528.98 295.43 531.57 288C534.15 280.57 538.28 269.77 540.74 264C543.2 258.23 548.77 246.41 553.11 237.75C557.45 229.09 560.77 221.55 560.5 221C560.23 220.45 559.44 220.02 558.75 220.03C558.06 220.05 552.77 221.98 547 224.31Z" />
		<path id="Path 2" class="shp2" d="M523.32 245.87C519.02 249.1 512.83 254.61 509.57 258.12C506.3 261.63 501.28 268.1 498.39 272.5C495.51 276.9 491.6 283.88 489.71 288C487.81 292.13 485.08 299.21 483.63 303.75C482.18 308.29 480.48 315.94 479.84 320.75C478.81 328.47 478.87 329.82 480.34 332.25C481.25 333.76 482.68 335 483.5 335C484.72 335 485 333.33 485 326C485 318.64 485.65 314.76 488.56 304.75C490.52 298.01 493.95 288.9 496.18 284.5C498.41 280.1 501.61 274.48 503.29 272C504.97 269.52 509.2 264.07 512.68 259.88C516.17 255.69 522.05 249.52 525.76 246.17C529.47 242.82 532.19 240.06 531.82 240.04C531.45 240.02 527.62 242.64 523.32 245.87Z" />
		<path id="Path 3" class="shp3" d="M267.69 253.25C265.76 256.69 262.6 263.32 260.66 268C258.71 272.68 256.18 280.32 255.02 285C253.86 289.68 252.65 298.45 252.33 304.5C251.97 311.07 252.23 319.13 252.95 324.5C253.62 329.45 255.31 337.1 256.71 341.5C258.1 345.9 260.32 351.98 261.63 355C262.94 358.02 264.2 360.27 264.43 360C264.67 359.73 263.1 354.32 260.95 348C258.79 341.68 256.31 331.77 255.42 326C254.36 319.11 253.99 312.4 254.35 306.5C254.65 301.55 255.64 293.9 256.55 289.5C257.46 285.1 258.62 280.38 259.12 279C259.62 277.63 260.22 276.73 260.46 277C260.7 277.27 260.26 281.1 259.48 285.5C258.7 289.9 258.06 298.68 258.04 305C258.02 311.32 258.68 320.66 259.5 325.75C260.33 330.84 262.18 338.26 263.63 342.25C265.08 346.24 267.93 353.1 269.97 357.5C272 361.9 275.8 367.98 278.41 371C281.02 374.02 283.57 377.29 284.08 378.25C284.86 379.73 284.54 380 282 380C280.13 380 278.06 379.06 276.5 377.5C275.13 376.13 273.77 375 273.5 375C273.23 375 273.23 375.9 273.5 377C273.89 378.55 273.5 379 271.75 379.01C270.51 379.02 267.36 377.67 264.75 376.01C262.14 374.36 258.14 371.31 255.88 369.25C253.61 367.19 249.45 362.68 246.63 359.22C243.81 355.77 241.05 352.96 240.5 352.97C239.88 352.99 239.6 357.1 239.75 363.75C239.89 369.66 240.5 379.45 241.11 385.5C241.71 391.55 243.23 400.55 244.47 405.5C245.71 410.45 248.41 418.77 250.47 424C252.52 429.23 256.45 437.77 259.21 443C261.96 448.23 267.15 457 270.73 462.5C274.32 468 280.08 476.1 283.53 480.5C286.98 484.9 293.67 493 298.39 498.5C303.12 504 306.99 509.06 306.99 509.75C307 510.54 304.49 509.74 300.25 507.6C296.54 505.74 289.45 501.51 284.5 498.21C279.55 494.91 272.95 490.03 269.83 487.36C266.72 484.68 261.19 479.8 257.56 476.5C253.93 473.2 250.7 470.73 250.4 471C250.09 471.27 250.26 472.85 250.76 474.5C251.26 476.15 252.23 477.5 252.93 477.5C253.62 477.5 257.24 484.48 260.97 493C264.7 501.52 270.06 513.11 272.88 518.75C275.7 524.39 279.86 532.04 282.13 535.75C284.4 539.46 289.07 546.1 292.5 550.5C295.93 554.9 302.74 562.33 307.62 567C312.5 571.68 319.88 578.02 324 581.1C328.13 584.17 335.32 588.98 340 591.79C344.68 594.59 351.65 598.32 355.5 600.06C359.35 601.81 365.88 604.48 370 605.99C374.13 607.5 382.45 609.98 388.5 611.5C394.55 613.01 399.95 614.65 400.5 615.14C401.1 615.68 399.51 616.02 396.5 615.99C393.75 615.97 387.8 615.18 383.27 614.23C378.74 613.28 375.02 612.73 375 613C374.97 613.27 379.8 615.01 385.73 616.85C391.65 618.7 397.96 620.61 399.75 621.1C401.54 621.6 403 622.45 403 623C403 623.55 399.29 626.34 394.75 629.19C390.21 632.05 378.85 638.32 369.5 643.14C360.15 647.95 345.3 655.01 336.5 658.83C327.7 662.64 313.75 668.03 305.5 670.8C297.25 673.57 285.32 677.17 279 678.79C272.68 680.41 264.35 682.44 260.5 683.32C256.65 684.19 247.88 685.57 241 686.39C234.13 687.2 225.46 688.12 221.75 688.44C218.04 688.75 215 689.45 215 690C215 690.55 216.8 691.67 219 692.5C221.2 693.33 226.71 694.65 231.25 695.44C235.79 696.24 246.47 697.39 255 698.01C263.52 698.63 275 698.86 280.5 698.51C286 698.16 294.55 697.22 299.5 696.41C304.45 695.6 313.68 693.62 320 692.02C326.32 690.42 338.02 687 346 684.43C353.98 681.85 365.45 677.82 371.5 675.48C377.55 673.13 386.55 669.42 391.5 667.24C396.45 665.05 409.95 658.19 421.5 651.98C433.05 645.76 451.5 635.43 462.5 629.01C473.5 622.59 487.68 614.47 494 610.98C500.32 607.49 512.02 601.52 520 597.72C527.98 593.91 539 588.78 544.5 586.31C550 583.85 562.15 578.76 571.5 575.01C580.85 571.25 597.5 565.1 608.5 561.34C624.21 555.97 627.75 554.45 625 554.26C623.08 554.13 620.83 553.33 620 552.48C618.66 551.1 618.72 550.78 620.5 549.5C622.26 548.23 620.11 548.06 602.25 548.03C589.5 548.01 577.65 548.57 570.25 549.55C563.79 550.4 554.45 552 549.5 553.1C544.55 554.2 535.1 556.88 528.5 559.07C521.9 561.26 511.89 565.28 506.25 568.02C500.61 570.76 495.66 572.79 495.25 572.52C494.84 572.26 495.18 571.31 496 570.41C497.04 569.28 497.32 567.66 496.91 565.14C496.58 563.14 495.09 558.8 493.59 555.5C492.1 552.2 488.01 545.23 484.51 540C481.01 534.77 475.25 526.9 471.72 522.5C468.18 518.1 459.71 508.85 452.89 501.94C446.08 495.04 427.68 477.28 412 462.47C396.32 447.67 374.11 426.54 362.62 415.53C351.14 404.51 338.3 391.23 334.09 386C329.88 380.77 323.01 371.32 318.82 365C314.63 358.68 308.9 349.34 306.1 344.25C303.29 339.16 298.72 329.94 295.93 323.75C293.14 317.56 288.91 307.1 286.52 300.5C284.14 293.9 280.12 280.29 277.59 270.25C275.07 260.21 273.05 251.13 273.1 250.06C273.16 248.99 272.75 247.86 272.2 247.55C271.64 247.24 269.61 249.81 267.69 253.25Z" />
		<path id="Path 4" class="shp2" d="M259.3 279.11C258.7 280.43 257.46 285.1 256.55 289.5C255.64 293.9 254.65 301.55 254.35 306.5C253.99 312.43 254.36 319.09 255.43 326C256.32 331.8 259.08 342.54 261.59 350C264.08 357.43 267.31 365.52 268.76 368C270.21 370.48 273.11 374.19 275.2 376.25C277.89 378.9 279.88 380 282 380C284.54 380 284.86 379.73 284.08 378.25C283.57 377.29 281.02 374.02 278.41 371C275.8 367.98 272 361.9 269.97 357.5C267.93 353.1 265.08 346.24 263.63 342.25C262.18 338.26 260.33 330.84 259.5 325.75C258.68 320.66 258.02 311.32 258.04 305C258.06 298.68 258.71 289.92 259.48 285.54C260.26 281.16 260.79 277.38 260.65 277.15C260.51 276.91 259.9 277.8 259.3 279.11ZM456.09 294.14C454.82 295.87 454.39 296.98 455.14 296.6C455.89 296.22 455.47 296.72 454.2 297.7C452.94 298.69 451.93 300.06 451.95 300.75C451.98 301.44 450.99 302.68 449.75 303.51C448.51 304.34 447.95 305.01 448.5 305C449.05 304.99 448.49 305.66 447.25 306.49C446.01 307.32 445.23 308.45 445.5 309C445.77 309.55 445.44 310.01 444.75 310.01C444.06 310.02 440.72 314.19 437.32 319.26C433.92 324.34 429.98 330.86 428.57 333.75C427.16 336.64 426.23 339.23 426.5 339.5C426.77 339.77 425.41 343.94 423.48 348.75C421.54 353.56 418.4 364.48 416.51 373C414.61 381.52 412.3 392.77 411.37 398C410.36 403.67 409.69 412.55 409.7 420C409.72 428.18 410.21 433.75 411.12 436.12C411.88 438.12 415.31 442.73 418.75 446.37C422.19 450.02 425 452.77 425 452.5C425 452.23 423.09 448.09 420.75 443.31L416.5 434.62C416.62 403.48 417.15 396.55 418.91 386.5C420.17 379.35 422.75 368.1 424.66 361.5C426.57 354.9 429.6 346.35 431.39 342.5C433.19 338.65 440.4 325.82 447.42 314C454.44 302.18 459.79 292.16 459.3 291.74C458.81 291.33 457.37 292.4 456.09 294.14Z" />
		<path id="Path 5" class="shp4" d="M450.37 300.25C447.24 304.24 444.18 308.08 443.59 308.79C442.76 309.78 442.92 310.08 444.25 310.04C445.21 310.02 445.77 309.55 445.5 309C445.23 308.45 446.01 307.32 447.25 306.49C448.49 305.66 449.05 304.99 448.5 305C447.95 305.01 448.51 304.34 449.75 303.51C450.99 302.68 452 301.32 452 300.5C452 299.68 452.9 298.55 454 298C455.1 297.45 455.78 296.66 455.51 296.25C455.24 295.84 455.49 294.94 456.08 294.25C456.66 293.56 456.9 293 456.61 293C456.32 293 453.51 296.26 450.37 300.25Z" />
		<path id="Path 6" class="shp2" d="M241.48 367.75C241.84 370.91 242.82 379.13 243.67 386C244.51 392.88 246.31 402.32 247.67 407C249.03 411.68 252.17 420.23 254.64 426C257.12 431.77 261.42 440.55 264.21 445.5C267 450.45 271.09 457.2 273.3 460.5C275.52 463.8 279.6 469.43 282.38 473C285.16 476.57 293.19 486.36 300.22 494.75C312.97 509.97 313.01 510 317.25 510.05L321.5 510.09C304.45 492.52 296.44 483.61 292.71 478.96C288.98 474.31 283.75 467.35 281.09 463.5C278.43 459.65 273.54 451.77 270.22 446C266.9 440.23 262.4 431.45 260.22 426.5C258.03 421.55 254.81 413.45 253.06 408.5C251.31 403.55 248.3 391.85 246.38 382.5C244.46 373.15 242.85 364.71 242.81 363.75C242.78 362.79 242.32 362 241.79 362C241.22 362 241.1 364.31 241.48 367.75Z" />
		<path id="Path 7" class="shp1" d="M389.94 378.2C388.1 381.12 386.5 384.4 386.4 385.5C386.3 386.6 385.5 389.98 384.62 393C383.73 396.02 382.45 403.14 381.76 408.82L380.5 419.14C392.13 429.14 396.06 432.03 396.75 432.02C397.72 432 397.97 427.04 397.87 410.25C397.8 398.29 397.46 385.13 397.12 381.01C396.64 375.26 396.13 373.45 394.9 373.21C393.88 373.02 392.08 374.83 389.94 378.2Z" />
		<path id="Path 8" class="shp2" d="M382.43 392.25C380.9 395.69 378.6 401.76 377.32 405.75L375 413C378.1 416.88 379.34 418.01 379.75 418.01C380.16 418.02 381.04 413.63 381.71 408.26C382.37 402.89 383.84 395.69 384.96 392.25C386.08 388.81 386.6 386 386.11 386C385.62 386 383.96 388.81 382.43 392.25ZM252.52 478.16C251.95 479.02 252.05 479.59 252.81 479.75C253.47 479.89 253.78 480.68 253.5 481.5C253.22 482.32 253.45 483 254 483C254.55 483 254.78 483.68 254.5 484.5C254.22 485.32 254.45 486 255 486C255.55 486 255.77 486.68 255.5 487.5C255.23 488.32 255.45 489 256 489C256.55 489 256.77 489.68 256.5 490.5C256.23 491.32 256.45 492 257 492C257.55 492 257.91 492.34 257.8 492.75C257.69 493.16 257.91 495.19 258.3 497.25C258.68 499.31 259.45 501 260 501C260.55 501 260.77 501.45 260.5 502C260.23 502.55 260.68 503.68 261.5 504.5C262.32 505.32 262.66 506.5 262.25 507.11C261.84 507.72 262.07 508.51 262.76 508.86C263.46 509.21 264.13 510.51 264.26 511.75C264.39 512.99 264.84 514 265.25 514C265.66 514 265.77 514.45 265.5 515C265.23 515.55 265.89 517.01 266.97 518.25C268.05 519.49 268.65 520.84 268.3 521.25C267.95 521.66 268.19 522 268.83 522C269.47 522 270 522.9 270 524C270 525.1 270.68 526.67 271.5 527.5C272.32 528.33 272.7 529.23 272.33 529.5C271.97 529.77 272.19 530 272.83 530C273.48 530 273.77 530.45 273.5 531C273.23 531.55 273.45 532 274 532C274.55 532 277.48 536.05 280.5 541C283.52 545.95 286 550.45 286 551C286 551.55 286.68 552.23 287.5 552.5C288.32 552.77 289 553.67 289 554.5C289 555.33 289.86 557.01 290.91 558.25C291.95 559.49 294.49 562.3 296.54 564.5C298.59 566.7 299.66 567.6 298.92 566.5C298.15 565.36 299 565.79 300.9 567.5C302.72 569.15 305.64 571.85 307.39 573.5C309.13 575.15 312.79 578.43 315.53 580.78C318.26 583.14 320.84 585.05 321.25 585.03C321.66 585.01 322.23 585.67 322.5 586.5C322.77 587.33 323.68 588 324.5 588C325.32 588 326 588.45 326 589C326 589.55 326.56 589.99 327.25 589.97C327.94 589.96 329.63 591.07 331 592.45C332.38 593.82 333.84 594.73 334.25 594.47C334.66 594.21 335 594.45 335 595C335 595.55 336.69 596.86 338.75 597.92C340.81 598.97 345.43 601.28 349 603.04C352.57 604.8 358.99 607.54 363.25 609.12C367.51 610.71 371.45 611.77 372 611.5C372.55 611.23 373 611.45 373 612C373 612.55 374.01 612.96 375.25 612.92C376.49 612.87 380.76 613.55 384.75 614.42C388.74 615.29 394.14 616.01 396.75 616.02C399.61 616.03 401.1 615.68 400.5 615.14C399.95 614.65 394.55 613.01 388.5 611.5C382.45 609.98 374.13 607.5 370 605.99C365.88 604.48 359.35 601.81 355.5 600.06C351.65 598.32 344.68 594.59 340 591.79C335.32 588.98 328.13 584.17 324 581.1C319.88 578.02 312.5 571.68 307.62 567C302.74 562.33 295.93 554.9 292.5 550.5C289.07 546.1 284.47 539.58 282.29 536C280.11 532.42 275.4 523.65 271.84 516.5C268.27 509.35 262.96 497.88 260.04 491C257.12 484.13 254.44 478.12 254.08 477.66C253.72 477.2 253.02 477.43 252.52 478.16Z" />
		<path id="Path 9" class="shp3" d="M274.62 533.5C275.03 534.6 277.19 538.59 279.43 542.36C281.67 546.13 284.42 550.18 285.54 551.36C286.66 552.54 287.87 554.17 288.21 555C288.72 556.21 288.86 556.17 288.92 554.75C288.96 553.79 288.32 552.77 287.5 552.5C286.68 552.23 286 551.55 286 551C286 550.45 283.7 546.29 280.88 541.75C278.07 537.21 275.34 533.05 274.82 532.5C274.23 531.87 274.15 532.24 274.62 533.5Z" />
		<path id="Path 10" class="shp5" d="M620.5 549.54C618.73 550.85 618.67 551.18 620 552.46C620.83 553.25 623.3 553.99 625.5 554.1C627.7 554.2 631.41 553.77 633.75 553.14C636.09 552.52 639.91 551.48 642.25 550.84C646.21 549.77 646.33 549.64 644 548.94C642.63 548.53 637.23 548.17 632 548.13C625.1 548.08 621.95 548.47 620.5 549.54Z" />
		<path id="Path 11" class="shp6" d="M134.26 559.25C133.72 559.94 133 561.51 132.64 562.75C132.29 563.99 132.34 565 132.75 565C133.16 565.01 134.06 564.11 134.75 563C135.44 561.9 136.68 561 137.5 561C138.32 561 139.66 562.01 140.48 563.25C141.29 564.49 142.21 565.27 142.52 565C142.83 564.73 141.94 563.04 140.54 561.25C139.14 559.46 137.38 558 136.61 558C135.85 558 134.79 558.56 134.26 559.25Z" />
		<path id="Path 12" class="shp1" d="M617.5 565.41C610.35 567.77 598.65 571.85 591.5 574.47C584.35 577.1 571.3 582.29 562.5 586.02C553.7 589.75 537.95 596.81 527.5 601.71C517.05 606.61 501.07 614.58 492 619.43C482.93 624.27 466.5 633.6 455.5 640.16C444.5 646.72 429.65 656.18 422.5 661.18C415.35 666.18 406.42 672.8 402.66 675.89C398.91 678.97 396.21 681.86 396.66 682.31C397.12 682.75 400.88 682.14 405 680.94C409.13 679.75 419.7 676.18 428.5 673.02C437.3 669.85 450.13 665 457 662.24C463.88 659.48 475.57 654.52 483 651.22C490.43 647.92 504.38 641.38 514 636.68C523.63 631.98 537.8 624.69 545.5 620.47C553.2 616.25 566.25 608.72 574.5 603.74C582.75 598.76 594 591.66 599.5 587.97C605 584.28 614.67 577.36 621 572.61C627.33 567.85 632.5 563.44 632.5 562.81C632.5 562.18 632.05 561.54 631.5 561.39C630.95 561.24 624.65 563.05 617.5 565.41Z" />
		<path id="Path 13" class="shp3" d="M26.75 233.5C27.9 235.15 30.79 238.33 33.17 240.57C35.55 242.81 39.75 246.45 42.5 248.65C45.25 250.86 48.06 252.96 48.75 253.33C49.44 253.7 50 253.55 50 253C50 252.45 49.44 251.79 48.75 251.53C48.06 251.27 45.26 249.13 42.53 246.78C39.79 244.42 36.13 241.15 34.39 239.5C32.64 237.85 29.74 235.15 27.94 233.5L24.66 230.5" />
		<path id="Path 14" class="shp6" d="M143.2 577.35C143.03 579.63 142.35 581.83 141.7 582.23C141.04 582.64 140.16 582.98 139.75 582.98C139.34 582.99 138.32 582.33 137.5 581.5C136.68 580.67 135.78 580.11 135.51 580.25C135.24 580.39 135.92 581.51 137.01 582.75C138.1 583.99 138.83 585.11 138.62 585.25C138.41 585.39 139.19 585.36 140.37 585.18C141.54 585.01 143.07 583.66 143.76 582.18C144.45 580.71 145.06 578.29 145.11 576.81C145.16 575.33 144.82 573.91 144.35 573.66C143.88 573.4 143.36 575.06 143.2 577.35Z" />
		<path id="Path 15" class="shp7" d="M129.8 581.34C127.95 583.08 124.9 586.75 123.02 589.5C121.14 592.25 117.94 598.1 115.91 602.5C113.88 606.9 111.5 613.42 110.63 617C109.75 620.58 108.56 628 107.99 633.5C107.26 640.49 107.27 646.36 108.01 653C108.6 658.23 109.77 665.2 110.61 668.5C111.46 671.8 114.05 678.55 116.38 683.5C118.71 688.45 122.45 695.2 124.69 698.5C126.94 701.8 130.96 706.67 133.64 709.32C136.67 712.32 140.57 714.93 144 716.25C148.23 717.88 152.39 718.46 162 718.76C170.73 719.04 176.76 718.7 182 717.62C186.13 716.78 189.84 716.29 190.25 716.54C190.66 716.79 191.79 716.4 192.75 715.67C193.71 714.93 197.43 713.3 201 712.04C204.57 710.77 210.09 708.45 213.25 706.87C216.41 705.29 219 703.55 219 703C219 702.36 216.75 702.27 212.75 702.75C209.31 703.16 202 703.46 196.5 703.4C189.63 703.34 184.15 702.65 179 701.2C174.88 700.05 170.6 699.33 169.5 699.61C168.4 699.89 163.9 698.98 159.5 697.59C155.1 696.21 148.8 693.45 145.5 691.48C142.2 689.5 136.89 685.32 133.7 682.19C130.38 678.94 126.63 673.93 124.94 670.5C123.3 667.2 121.5 661.58 120.93 658C120.36 654.42 120.18 649.02 120.53 646C120.87 642.98 122.02 637.24 123.08 633.25C124.14 629.26 127.44 620.04 130.41 612.75C133.39 605.46 136.5 596.8 137.31 593.5C138.13 590.2 138.73 586.71 138.65 585.75C138.57 584.79 138.16 584 137.75 584C137.34 584 137.22 583.33 137.5 582.5C137.79 581.64 137.46 581.11 136.75 581.25C136.06 581.39 135.61 580.94 135.75 580.25C135.89 579.56 135.36 578.82 134.58 578.59C133.8 578.37 131.65 579.61 129.8 581.34Z" />
		<path id="Path 16" class="shp6" d="M163.58 596.5C163.26 597.33 163.01 599.24 163.01 600.75C163.03 602.95 162.38 603.74 159.76 604.69C157.97 605.35 154.27 608.27 151.54 611.19C148.81 614.11 145.36 619.2 143.89 622.5C142.41 625.8 140.64 631.42 139.95 635C139.22 638.8 138.92 644.82 139.24 649.5C139.57 654.35 140.82 660.45 142.43 665C143.89 669.13 146.72 675.42 148.74 679C150.75 682.58 154.22 687.47 156.45 689.87C158.68 692.27 162.53 695.24 165 696.47C167.47 697.7 173.32 699.73 178 700.97C183.46 702.42 189.72 703.28 195.5 703.36C200.45 703.44 208.1 703.19 212.5 702.82C218.28 702.32 220.71 701.7 221.25 700.57C221.66 699.7 221.89 698.78 221.75 698.52C221.61 698.25 217.9 697.81 213.5 697.53C209.1 697.25 201.45 695.86 196.5 694.44C191.55 693.02 183.45 689.91 178.5 687.54C173.46 685.12 167.12 681.09 164.08 678.36C161.09 675.69 156.9 671.25 154.76 668.5C152.62 665.75 150.47 661.92 149.98 660C149.49 658.08 148.87 655.15 148.6 653.5C148.32 651.85 148.57 648.02 149.13 645C149.7 641.98 151.77 636.58 153.74 633C155.71 629.42 159.19 622.9 161.48 618.5C164.63 612.44 165.46 609.89 164.92 608C164.52 606.63 164.15 604.04 164.1 602.25C164.04 600.46 164.68 598.33 165.5 597.5C166.32 596.67 167 595.77 167 595.5C167 595.23 166.36 595 165.58 595C164.81 595 163.91 595.67 163.58 596.5Z" />
		<path id="Path 17" class="shp8" d="M176.37 622.36C174.1 623.68 170.69 627.1 168.66 630.11C166.65 633.07 164.56 637.64 164.01 640.25C163.45 642.86 162.99 646.69 162.99 648.75C162.98 650.81 163.83 655.88 164.86 660C165.9 664.13 167.9 669.98 169.31 673C170.95 676.53 174.21 680.73 178.43 684.75C184.12 690.17 186.04 691.32 192.75 693.38C197.01 694.7 201.85 696.02 203.5 696.32C205.15 696.62 208.19 697.12 210.25 697.43C212.46 697.77 214 697.59 214 697C214 696.45 210.06 694.17 205.25 691.94C200.44 689.71 193.35 685.52 189.5 682.63C185.65 679.74 180.86 675.38 178.85 672.94C176.84 670.5 174.1 666.48 172.76 664C171.43 661.52 169.99 657.48 169.57 655C169.11 652.26 169.25 648.94 169.94 646.5C170.57 644.3 172.85 640.25 175.02 637.5C177.19 634.75 180.04 630.92 181.36 629C182.72 627.03 183.69 624.3 183.57 622.75C183.45 621.09 182.79 620 181.9 620C181.09 620 178.6 621.06 176.37 622.36Z" />
		<path id="Path 18" class="shp3" d="M379.5 678.67C377.3 679.51 366.95 683.11 356.5 686.66C346.05 690.21 331.65 694.65 324.5 696.52C317.35 698.39 306.1 700.83 299.5 701.94C292.9 703.05 275.35 705.77 260.5 707.99C245.65 710.2 233.31 712.23 233.08 712.5C232.85 712.78 239.49 713 247.83 713L263 713C263 721.86 263.09 721.99 265.75 721.53C267.26 721.28 270.3 720.78 272.5 720.43C274.7 720.08 281.9 718.46 288.5 716.82C295.1 715.19 306.46 711.86 313.75 709.43C321.04 706.99 333.41 702.26 341.25 698.9C349.09 695.55 362.15 689.58 370.28 685.65C378.41 681.72 385.05 678.16 385.03 677.75C385.01 677.34 384.66 677.03 384.25 677.07C383.84 677.11 381.7 677.83 379.5 678.67Z" />
		<path id="Path 19" class="shp9" d="M220 713.52C214.22 714.26 209.11 714.9 208.62 714.93C208.14 714.97 207.69 716.54 207.62 718.42C207.5 721.73 207.64 721.86 212 722.5C214.47 722.87 224.38 723.14 234 723.11C243.63 723.08 254.09 722.71 257.26 722.28L263.03 721.5L263 713C240.91 712.98 233.6 712.79 232.5 712.58C231.4 712.36 225.78 712.79 220 713.52Z" />
		<path id="Path 20" class="shp10" d="M349.93 714.28C346.32 715.5 341.71 717.74 339.68 719.25C337.66 720.76 334.62 723.91 332.94 726.25C331.26 728.59 328.94 733.65 327.8 737.5C326.11 743.14 325.8 746.25 326.19 753.5C326.56 760.32 327.33 763.96 329.34 768.5C330.8 771.8 333.91 776.39 336.25 778.7C338.59 781.01 343.2 784.13 346.5 785.62C351.26 787.79 354.46 788.45 362 788.82C367.79 789.1 373.65 788.79 377 788.02C380.02 787.32 384.66 785.8 387.29 784.63L392.08 782.5C392.02 768.61 391.59 765 391 765C390.45 765 387.41 766.8 384.25 769C381.07 771.21 376.26 773.5 373.5 774.12C370.75 774.74 366.81 774.97 364.75 774.62C362.69 774.28 359.2 773.1 357 772C354.8 770.9 351.88 768.31 350.51 766.25C349.14 764.19 347.53 759.8 346.93 756.5C346.15 752.19 346.14 748.81 346.92 744.5C347.56 740.98 349.14 736.88 350.75 734.59C352.26 732.44 355.3 729.74 357.5 728.59C360.4 727.07 363.28 726.51 368 726.55C372.81 726.58 375.67 727.2 379 728.94C381.48 730.23 384.85 732.34 386.5 733.62C388.15 734.9 390.06 735.96 390.75 735.97C391.66 735.99 392 733.55 392 727L392 718C385.41 715.12 381.14 713.77 378.25 713.14C375.36 712.51 369.29 712.01 364.75 712.03C358.91 712.04 354.58 712.7 349.93 714.28ZM407 750.5L407 788L462 788L462 773L426 773L426 755L459 755L459 740L426 740L426 728L462 728L462 713L407 713M479 750.5L479 788L534 788L533.5 773.5L498 773L498 713L479 713M546 750.5L546 788L601 788L600.5 773.5L565 773L565 713L546 713" />
		<path id="Path 21" class="shp3" d="M198.75 715.69C195.59 715.86 193 716.45 193 717C193 717.55 195.36 718.65 198.25 719.45C201.14 720.24 204.4 721.03 205.5 721.2C207.12 721.44 207.53 720.89 207.67 718.25C207.8 715.75 207.46 715.04 206.17 715.19C205.25 715.29 201.91 715.52 198.75 715.69Z" />
		<path id="Path 22" class="shp10" d="M208.14 754.89L208 788L263 788L263 773L227 773L227 755L260.5 754.5L260.5 740.5L227 740L227 728L263 728L263.03 721.5C254.09 722.71 243.4 723.08 233.5 723.11C223.6 723.13 213.87 722.84 211.89 722.47L208.27 721.78M276.02 754.48L276 762L315 762L314.5 747.5L276.04 746.96M462 821.33C460.07 822.01 457.52 823.23 456.32 824.03C455.12 824.84 452.99 827.08 451.57 829C450.15 830.92 448.5 834.98 447.91 838C447.32 841.02 447.15 845.3 447.54 847.5C447.92 849.7 449.02 853.08 449.98 855C450.94 856.92 453.03 859.65 454.61 861.04C456.2 862.44 459.3 864.23 461.5 865.01C463.7 865.79 468.43 866.43 472 866.43C475.57 866.43 480.86 865.66 483.75 864.72C488.76 863.08 489 862.84 489 859.5C489 857.58 488.89 856 488.75 856C488.61 856.01 486.25 857.14 483.5 858.52C479.7 860.43 476.94 861.04 472 861.05C466.9 861.05 464.76 860.57 462.06 858.78C460.16 857.53 457.69 854.92 456.56 853C455.04 850.43 454.5 847.76 454.5 842.93C454.5 837.56 454.97 835.64 457.07 832.43C458.5 830.24 461.38 827.66 463.57 826.61C466.55 825.18 468.95 824.83 473.5 825.19C477.49 825.5 481.09 826.55 484.25 828.33L489 831C489.03 823.61 488.89 823.45 483.77 821.76C480.87 820.81 475.57 820.04 472 820.06C468.43 820.07 463.93 820.65 462 821.33ZM606.97 822.34C604.52 823.62 601.16 826.59 599.51 828.92C596.86 832.66 596.46 834.15 596.17 841.34C595.94 847.03 596.32 850.79 597.42 853.75C598.38 856.35 600.65 859.36 603.25 861.5C605.82 863.61 609.48 865.44 612.5 866.13C615.4 866.78 619.6 866.95 622.5 866.54C625.25 866.15 629.19 864.97 631.25 863.91C633.31 862.86 636.06 860.54 637.36 858.75C638.66 856.96 640.24 853.92 640.88 852C641.51 850.08 642.04 845.8 642.05 842.5C642.06 837.84 641.43 835.27 639.22 831C636.85 826.43 635.46 825.03 630.94 822.72C626.48 820.44 624.23 819.94 618.47 819.97C613.07 819.99 610.39 820.55 606.97 822.34ZM204 823C204 824.62 204.67 825 207.5 825L211 825L211 861C204.43 861 204 861.31 204 863.5L204 866L224 866C224 861.31 223.57 861 220.5 861L217 861L217.5 825.5C223.25 825.06 224 824.54 224 823C224 821.13 223.33 821 214 821C204.67 821 204 821.13 204 823ZM233 823C233 824.62 233.67 825 236.5 825L240 825L240 861C234.21 861.45 233.45 861.99 233.25 863.75C233.01 865.95 233.22 866 243 866L253 866C253 861.39 252.53 861 250 861L247 861L247 825C252.33 825 253 824.56 253 823C253 821.13 252.33 821 243 821C233.67 821 233 821.13 233 823ZM263 823C263 824.56 263.67 825 266 825L269 825L269 861C263.47 861 263 861.39 263 863.5C263 865.99 263.03 866 272.5 866C281.97 866 282 865.99 282 863.5C282 861.39 281.53 861 279 861L276 861L276 825C281.33 825 282 824.56 282 823C282 821.14 281.33 821 272.5 821C263.67 821 263 821.14 263 823ZM287 823.5C287 825.98 287.07 826 296 826L305 826L305 866L312 866L312 826C329.93 826 330 825.98 330 823.5L330 821L287 821M361 843.5L361 866L393 866L393 861L368 861L368 821L361 821M399.19 838.93C399.47 855.32 399.68 857.1 401.6 859.68C402.76 861.23 405.24 863.4 407.1 864.5C409.69 866.02 412.3 866.5 418 866.5C423.7 866.5 426.31 866.02 428.9 864.5C430.76 863.4 433.24 861.23 434.4 859.68C436.34 857.07 436.51 855.51 436.6 838.93L436.71 821L431 821C430.99 843.09 430.54 851.19 429.99 853.25C429.45 855.31 427.99 857.88 426.75 858.96C425.51 860.04 422.81 861.17 420.75 861.46C418.69 861.76 415.36 861.44 413.35 860.75C411.34 860.06 408.75 858.23 407.6 856.67C405.7 854.12 405.47 852.27 405.2 837.42L404.91 821L398.87 821M499 843.5L499 866L505 866C504.96 852.14 505.2 851.26 507.73 848.77L510.5 846.04C528.85 864.37 531.01 866.01 533.58 866.01C535.28 866 536.98 865.66 537.37 865.25C537.75 864.84 532.99 859.4 526.78 853.17L515.5 841.85L537.5 821.04C530.35 821 528.91 822.02 518.44 831.75C512.08 837.66 506.46 842.61 505.94 842.75C505.39 842.9 505 838.39 505 832L505 821L499 821M547 843.5L547 866L553 866L553.5 826.53L576.53 865.5L585 866L585 821L579 821C579 848.67 578.63 855 578 855C577.45 855 572.61 847.37 567.25 838.04L557.5 821.07L547 821M656 843.48L662.5 865.99C669.64 866 670.08 865.69 670.84 862.75C671.3 860.96 673.44 853.08 675.59 845.23C677.74 837.38 679.84 830.97 680.25 830.98C680.66 830.99 681.66 833.36 682.46 836.25C683.26 839.14 685.44 846.9 687.31 853.5L690.71 865.5L698.37 865.5C708.12 832.17 710.96 822.16 710.98 821.75C710.99 821.34 709.55 821.11 707.78 821.25L704.57 821.5C697.54 847.29 695.16 855.16 694.75 855.64C694.34 856.11 693.86 856.27 693.68 856C693.5 855.73 691.9 850.1 690.13 843.5C688.35 836.9 686.24 829.14 685.45 826.25C684.02 821.07 683.95 821 680.37 821.25L676.73 821.5C669.94 846.3 667.74 854.17 667.47 855C667.2 855.83 666.65 856.11 666.24 855.63C665.83 855.15 663.44 847.28 660.92 838.13L656.34 821.5L649.5 820.96" />
		<path id="Path 23" class="shp0" d="M611.07 826.75C609.19 827.71 606.83 829.63 605.83 831C604.83 832.38 603.63 835.52 603.15 838C602.68 840.48 602.65 844.75 603.07 847.5C603.5 850.25 604.67 853.57 605.67 854.88C606.68 856.19 608.63 858.14 610 859.21C611.72 860.56 614.22 861.21 618 861.31C621.86 861.41 624.51 860.86 626.9 859.47C628.76 858.39 631.24 856.23 632.4 854.67C633.98 852.55 634.58 850.06 634.81 844.67C635.07 838.73 634.73 836.74 632.81 833.07C631.38 830.33 629.17 827.95 627 826.82C625.08 825.82 621.48 825 619 825C616.52 825 612.96 825.79 611.07 826.75Z" />
	</g>
</svg>